<mxfile host="app.diagrams.net" modified="2024-04-25T10:21:33.109Z" agent="Mozilla/5.0 (Macintosh; Intel Mac OS X 10_15_7) AppleWebKit/537.36 (KHTML, like Gecko) Chrome/123.0.0.0 Safari/537.36" version="24.2.9" etag="d0LK41DBU_sLMog39d69" type="github">
  <diagram name="Page-1" id="zUfcn_x9p_sMA75B2Tm-">
    <mxGraphModel>
      <root>
        <mxCell id="0" />
        <mxCell id="1" parent="0" />
      </root>
    </mxGraphModel>
  </diagram>
</mxfile>
